# Created by Kenney (www.kenney.nl)

mtllib LeachShip.mtl

v 2 9 1.95
v 2 9 -1.95
v 1 9 1.95
v 1 9 -1.95
v 1 13 -1.95
v 1 13 1.95
v 2 13 -1.95
v 2 13 1.95
v 1 12 1.95
v 1 12 -1.95
v -2 12 1.95
v -2 12 -1.95
v -2 13 -1.95
v -2 13 1.95
v 2 12 1.95
v 2 12 -1.95
v 3 9 1.95
v 3 9 -1.95
v 3 12 -1.95
v 3 12 1.95
v 1 10 3.25
v 1 10 -3.25
v -1 10 3.25
v -1 10 -3.25
v -1 12 -3.25
v -1 12 3.25
v 1 12 -3.25
v 1 12 3.25
v -1 9 1.95
v -1 9 -1.95
v -3 9 1.95
v -3 9 -1.95
v -3 12 -1.95
v -3 12 1.95
v -1 12 -1.95
v -1 12 1.95
v 1 6 2.6
v 1 6 -2.6
v -1 6 2.6
v -1 6 -2.6
v -1 10 -2.6
v -1 10 2.6
v 1 10 -2.6
v 1 10 2.6
v 2 6 1.95
v 2 6 -1.95
v 1 6 1.95
v 1 6 -1.95
v 1 8 -1.95
v 1 8 1.95
v 2 8 -1.95
v 2 8 1.95
v -1 6 1.95
v -1 6 -1.95
v -2 6 1.95
v -2 6 -1.95
v -2 8 -1.95
v -2 8 1.95
v -1 8 -1.95
v -1 8 1.95
v 5 -1 1.95
v 5 -1 -1.95
v 3 -1 1.95
v 3 -1 -1.95
v 3 6 -1.95
v 3 6 1.95
v 5 6 -1.95
v 5 6 1.95
v 3 -13 1.95
v 3 -13 -1.95
v 2 -13 1.95
v 2 -13 -1.95
v 2 4 3.25
v 2 4 -3.25
v 1 4 3.25
v 1 4 -3.25
v 1 6 -3.25
v 1 6 3.25
v 2 6 -3.25
v 2 6 3.25
v 1 5 3.9
v 1 5 -3.9
v -1 5 3.9
v -1 5 -3.9
v -1 6 -3.9
v -1 6 3.9
v 1 6 -3.9
v 1 6 3.9
v -1 4 3.25
v -1 4 -3.25
v -2 4 3.25
v -2 4 -3.25
v -2 6 -3.25
v -2 6 3.25
v -1 6 -3.25
v -1 6 3.25
v -2 -13 1.95
v -2 -13 -1.95
v -3 -13 1.95
v -3 -13 -1.95
v -3 6 -1.95
v -3 6 1.95
v -3 -1 1.95
v -3 -1 -1.95
v -5 -1 1.95
v -5 -1 -1.95
v -5 6 -1.95
v -5 6 1.95
v 6 1 1.95
v 6 1 -1.95
v 5 1 1.95
v 5 1 -1.95
v 5 5 -1.95
v 5 5 1.95
v 6 5 -1.95
v 6 5 1.95
v 1 1 3.9
v 1 1 -3.9
v -1 1 3.9
v -1 1 -3.9
v -5 1 1.95
v -5 1 -1.95
v -6 1 1.95
v -6 1 -1.95
v -6 5 -1.95
v -6 5 1.95
v -5 5 -1.95
v -5 5 1.95
v 7 1 1.95
v 7 1 -1.95
v 6 4 -1.95
v 6 4 1.95
v 7 4 -1.95
v 7 4 1.95
v 2 3 3.25
v 2 3 -3.25
v 1 3 3.25
v 1 3 -3.25
v -1 3 3.25
v -1 3 -3.25
v -2 3 3.25
v -2 3 -3.25
v -7 1 1.95
v -7 1 -1.95
v -7 4 -1.95
v -7 4 1.95
v -6 4 -1.95
v -6 4 1.95
v 2 -12 3.25
v 2 -12 -3.25
v 1 -12 3.25
v 1 -12 -3.25
v -1 -12 3.25
v -1 -12 -3.25
v -2 -12 3.25
v -2 -12 -3.25
v 1 0 3.9
v 1 0 -3.9
v -1 0 3.9
v -1 0 -3.9
v 1 -1 3.9
v 1 -1 -3.9
v -1 -1 3.9
v -1 -1 -3.9
v 1 -2 3.9
v 1 -2 -3.9
v -1 -2 3.9
v -1 -2 -3.9
v 1 -12 5.2
v 1 -12 -5.2
v -1 -12 5.2
v -1 -12 -5.2
v -1 -2 -5.2
v -1 -2 5.2
v 1 -2 -5.2
v 1 -2 5.2
v 6 -12 1.95
v 6 -12 -1.95
v 4 -12 1.95
v 4 -12 -1.95
v 4 -5 -1.95
v 4 -5 1.95
v 6 -5 -1.95
v 6 -5 1.95
v 4 -13 1.95
v 4 -13 -1.95
v 3 -5 -1.95
v 3 -5 1.95
v -4 -13 1.95
v -4 -13 -1.95
v -4 -5 -1.95
v -4 -5 1.95
v -3 -5 -1.95
v -3 -5 1.95
v -4 -12 1.95
v -4 -12 -1.95
v -6 -12 1.95
v -6 -12 -1.95
v -6 -5 -1.95
v -6 -5 1.95
v 8 -11 1.95
v 8 -11 -1.95
v 6 -11 1.95
v 6 -11 -1.95
v 6 -7 -1.95
v 6 -7 1.95
v 8 -7 -1.95
v 8 -7 1.95
v -6 -11 1.95
v -6 -11 -1.95
v -8 -11 1.95
v -8 -11 -1.95
v -8 -7 -1.95
v -8 -7 1.95
v -6 -7 -1.95
v -6 -7 1.95
v 2 -13 2.6
v 2 -13 -2.6
v -2 -13 2.6
v -2 -13 -2.6
v -2 -12 -2.6
v -2 -12 2.6
v 2 -12 -2.6
v 2 -12 2.6

vn 0 -1 0
vn -1 0 0
vn 0 0 -1
vn 0 0 1
vn 1 0 0
vn 0 1 0

vt 0.1875 0.1875
vt 0.5625 0.1875
vt 0.0625 0.1875

usemtl LeachShip

f 3/1/1 2/1/1 1/1/1
f 2/1/1 3/1/1 4/1/1
f 3/1/2 5/1/2 4/1/2
f 5/1/2 3/1/2 6/1/2
f 5/1/3 2/1/3 4/1/3
f 2/1/3 5/1/3 7/1/3
f 8/1/4 3/1/4 1/1/4
f 3/1/4 8/1/4 6/1/4
f 8/1/5 2/1/5 7/1/5
f 2/1/5 8/1/5 1/1/5
f 5/1/6 8/1/6 7/1/6
f 8/1/6 5/1/6 6/1/6
f 11/1/1 10/1/1 9/1/1
f 10/1/1 11/1/1 12/1/1
f 11/1/2 13/1/2 12/1/2
f 13/1/2 11/1/2 14/1/2
f 13/1/3 10/1/3 12/1/3
f 10/1/3 13/1/3 5/1/3
f 6/1/4 11/1/4 9/1/4
f 11/1/4 6/1/4 14/1/4
f 6/1/5 10/1/5 5/1/5
f 10/1/5 6/1/5 9/1/5
f 13/1/6 6/1/6 5/1/6
f 6/1/6 13/1/6 14/1/6
f 11/1/1 16/1/1 15/1/1
f 16/1/1 11/1/1 12/1/1
f 11/1/2 13/1/2 12/1/2
f 13/1/2 11/1/2 14/1/2
f 13/1/3 16/1/3 12/1/3
f 16/1/3 13/1/3 7/1/3
f 8/1/4 11/1/4 15/1/4
f 11/1/4 8/1/4 14/1/4
f 8/1/5 16/1/5 7/1/5
f 16/1/5 8/1/5 15/1/5
f 13/1/6 8/1/6 7/1/6
f 8/1/6 13/1/6 14/1/6
f 1/1/1 18/1/1 17/1/1
f 18/1/1 1/1/1 2/1/1
f 1/1/2 16/1/2 2/1/2
f 16/1/2 1/1/2 15/1/2
f 16/1/3 18/1/3 2/1/3
f 18/1/3 16/1/3 19/1/3
f 20/1/4 1/1/4 17/1/4
f 1/1/4 20/1/4 15/1/4
f 20/1/5 18/1/5 19/1/5
f 18/1/5 20/1/5 17/1/5
f 16/1/6 20/1/6 19/1/6
f 20/1/6 16/1/6 15/1/6
f 23/2/1 22/2/1 21/2/1
f 22/2/1 23/2/1 24/2/1
f 23/2/2 25/2/2 24/2/2
f 25/2/2 23/2/2 26/2/2
f 25/2/3 22/2/3 24/2/3
f 22/2/3 25/2/3 27/2/3
f 28/2/4 23/2/4 21/2/4
f 23/2/4 28/2/4 26/2/4
f 28/2/5 22/2/5 27/2/5
f 22/2/5 28/2/5 21/2/5
f 25/2/6 28/2/6 27/2/6
f 28/2/6 25/2/6 26/2/6
f 31/1/1 30/1/1 29/1/1
f 30/1/1 31/1/1 32/1/1
f 31/1/2 33/1/2 32/1/2
f 33/1/2 31/1/2 34/1/2
f 33/1/3 30/1/3 32/1/3
f 30/1/3 33/1/3 35/1/3
f 36/1/4 31/1/4 29/1/4
f 31/1/4 36/1/4 34/1/4
f 36/1/5 30/1/5 35/1/5
f 30/1/5 36/1/5 29/1/5
f 33/1/6 36/1/6 35/1/6
f 36/1/6 33/1/6 34/1/6
f 39/1/1 38/1/1 37/1/1
f 38/1/1 39/1/1 40/1/1
f 39/1/2 41/1/2 40/1/2
f 41/1/2 39/1/2 42/1/2
f 41/1/3 38/1/3 40/1/3
f 38/1/3 41/1/3 43/1/3
f 44/1/4 39/1/4 37/1/4
f 39/1/4 44/1/4 42/1/4
f 44/1/5 38/1/5 43/1/5
f 38/1/5 44/1/5 37/1/5
f 41/1/6 44/1/6 43/1/6
f 44/1/6 41/1/6 42/1/6
f 47/1/1 46/1/1 45/1/1
f 46/1/1 47/1/1 48/1/1
f 47/1/2 49/1/2 48/1/2
f 49/1/2 47/1/2 50/1/2
f 49/1/3 46/1/3 48/1/3
f 46/1/3 49/1/3 51/1/3
f 52/1/4 47/1/4 45/1/4
f 47/1/4 52/1/4 50/1/4
f 52/1/5 46/1/5 51/1/5
f 46/1/5 52/1/5 45/1/5
f 49/1/6 52/1/6 51/1/6
f 52/1/6 49/1/6 50/1/6
f 55/1/1 54/1/1 53/1/1
f 54/1/1 55/1/1 56/1/1
f 55/1/2 57/1/2 56/1/2
f 57/1/2 55/1/2 58/1/2
f 57/1/3 54/1/3 56/1/3
f 54/1/3 57/1/3 59/1/3
f 60/1/4 55/1/4 53/1/4
f 55/1/4 60/1/4 58/1/4
f 60/1/5 54/1/5 59/1/5
f 54/1/5 60/1/5 53/1/5
f 57/1/6 60/1/6 59/1/6
f 60/1/6 57/1/6 58/1/6
f 63/3/1 62/3/1 61/3/1
f 62/3/1 63/3/1 64/3/1
f 63/3/2 65/3/2 64/3/2
f 65/3/2 63/3/2 66/3/2
f 65/3/3 62/3/3 64/3/3
f 62/3/3 65/3/3 67/3/3
f 68/3/4 63/3/4 61/3/4
f 63/3/4 68/3/4 66/3/4
f 68/3/5 62/3/5 67/3/5
f 62/3/5 68/3/5 61/3/5
f 65/3/6 68/3/6 67/3/6
f 68/3/6 65/3/6 66/3/6
f 71/1/1 70/1/1 69/1/1
f 70/1/1 71/1/1 72/1/1
f 71/1/2 46/1/2 72/1/2
f 46/1/2 71/1/2 45/1/2
f 46/1/3 70/1/3 72/1/3
f 70/1/3 46/1/3 65/1/3
f 66/1/4 71/1/4 69/1/4
f 71/1/4 66/1/4 45/1/4
f 66/1/5 70/1/5 65/1/5
f 70/1/5 66/1/5 69/1/5
f 46/1/6 66/1/6 65/1/6
f 66/1/6 46/1/6 45/1/6
f 75/1/1 74/1/1 73/1/1
f 74/1/1 75/1/1 76/1/1
f 75/1/2 77/1/2 76/1/2
f 77/1/2 75/1/2 78/1/2
f 77/1/3 74/1/3 76/1/3
f 74/1/3 77/1/3 79/1/3
f 80/1/4 75/1/4 73/1/4
f 75/1/4 80/1/4 78/1/4
f 80/1/5 74/1/5 79/1/5
f 74/1/5 80/1/5 73/1/5
f 77/1/6 80/1/6 79/1/6
f 80/1/6 77/1/6 78/1/6
f 83/1/1 82/1/1 81/1/1
f 82/1/1 83/1/1 84/1/1
f 83/1/2 85/1/2 84/1/2
f 85/1/2 83/1/2 86/1/2
f 85/1/3 82/1/3 84/1/3
f 82/1/3 85/1/3 87/1/3
f 88/1/4 83/1/4 81/1/4
f 83/1/4 88/1/4 86/1/4
f 88/1/5 82/1/5 87/1/5
f 82/1/5 88/1/5 81/1/5
f 85/1/6 88/1/6 87/1/6
f 88/1/6 85/1/6 86/1/6
f 91/1/1 90/1/1 89/1/1
f 90/1/1 91/1/1 92/1/1
f 91/1/2 93/1/2 92/1/2
f 93/1/2 91/1/2 94/1/2
f 93/1/3 90/1/3 92/1/3
f 90/1/3 93/1/3 95/1/3
f 96/1/4 91/1/4 89/1/4
f 91/1/4 96/1/4 94/1/4
f 96/1/5 90/1/5 95/1/5
f 90/1/5 96/1/5 89/1/5
f 93/1/6 96/1/6 95/1/6
f 96/1/6 93/1/6 94/1/6
f 99/1/1 98/1/1 97/1/1
f 98/1/1 99/1/1 100/1/1
f 99/1/2 101/1/2 100/1/2
f 101/1/2 99/1/2 102/1/2
f 101/1/3 98/1/3 100/1/3
f 98/1/3 101/1/3 56/1/3
f 55/1/4 99/1/4 97/1/4
f 99/1/4 55/1/4 102/1/4
f 55/1/5 98/1/5 56/1/5
f 98/1/5 55/1/5 97/1/5
f 101/1/6 55/1/6 56/1/6
f 55/1/6 101/1/6 102/1/6
f 105/3/1 104/3/1 103/3/1
f 104/3/1 105/3/1 106/3/1
f 105/3/2 107/3/2 106/3/2
f 107/3/2 105/3/2 108/3/2
f 107/3/3 104/3/3 106/3/3
f 104/3/3 107/3/3 101/3/3
f 102/3/4 105/3/4 103/3/4
f 105/3/4 102/3/4 108/3/4
f 102/3/5 104/3/5 101/3/5
f 104/3/5 102/3/5 103/3/5
f 107/3/6 102/3/6 101/3/6
f 102/3/6 107/3/6 108/3/6
f 111/1/1 110/1/1 109/1/1
f 110/1/1 111/1/1 112/1/1
f 111/1/2 113/1/2 112/1/2
f 113/1/2 111/1/2 114/1/2
f 113/1/3 110/1/3 112/1/3
f 110/1/3 113/1/3 115/1/3
f 116/1/4 111/1/4 109/1/4
f 111/1/4 116/1/4 114/1/4
f 116/1/5 110/1/5 115/1/5
f 110/1/5 116/1/5 109/1/5
f 113/1/6 116/1/6 115/1/6
f 116/1/6 113/1/6 114/1/6
f 119/3/1 118/3/1 117/3/1
f 118/3/1 119/3/1 120/3/1
f 119/3/2 84/3/2 120/3/2
f 84/3/2 119/3/2 83/3/2
f 84/3/3 118/3/3 120/3/3
f 118/3/3 84/3/3 82/3/3
f 81/3/4 119/3/4 117/3/4
f 119/3/4 81/3/4 83/3/4
f 81/3/5 118/3/5 82/3/5
f 118/3/5 81/3/5 117/3/5
f 84/3/6 81/3/6 82/3/6
f 81/3/6 84/3/6 83/3/6
f 123/1/1 122/1/1 121/1/1
f 122/1/1 123/1/1 124/1/1
f 123/1/2 125/1/2 124/1/2
f 125/1/2 123/1/2 126/1/2
f 125/1/3 122/1/3 124/1/3
f 122/1/3 125/1/3 127/1/3
f 128/1/4 123/1/4 121/1/4
f 123/1/4 128/1/4 126/1/4
f 128/1/5 122/1/5 127/1/5
f 122/1/5 128/1/5 121/1/5
f 125/1/6 128/1/6 127/1/6
f 128/1/6 125/1/6 126/1/6
f 109/1/1 130/1/1 129/1/1
f 130/1/1 109/1/1 110/1/1
f 109/1/2 131/1/2 110/1/2
f 131/1/2 109/1/2 132/1/2
f 131/1/3 130/1/3 110/1/3
f 130/1/3 131/1/3 133/1/3
f 134/1/4 109/1/4 129/1/4
f 109/1/4 134/1/4 132/1/4
f 134/1/5 130/1/5 133/1/5
f 130/1/5 134/1/5 129/1/5
f 131/1/6 134/1/6 133/1/6
f 134/1/6 131/1/6 132/1/6
f 137/3/1 136/3/1 135/3/1
f 136/3/1 137/3/1 138/3/1
f 137/3/2 76/3/2 138/3/2
f 76/3/2 137/3/2 75/3/2
f 76/3/3 136/3/3 138/3/3
f 136/3/3 76/3/3 74/3/3
f 73/3/4 137/3/4 135/3/4
f 137/3/4 73/3/4 75/3/4
f 73/3/5 136/3/5 74/3/5
f 136/3/5 73/3/5 135/3/5
f 76/3/6 73/3/6 74/3/6
f 73/3/6 76/3/6 75/3/6
f 141/3/1 140/3/1 139/3/1
f 140/3/1 141/3/1 142/3/1
f 141/3/2 92/3/2 142/3/2
f 92/3/2 141/3/2 91/3/2
f 92/3/3 140/3/3 142/3/3
f 140/3/3 92/3/3 90/3/3
f 89/3/4 141/3/4 139/3/4
f 141/3/4 89/3/4 91/3/4
f 89/3/5 140/3/5 90/3/5
f 140/3/5 89/3/5 139/3/5
f 92/3/6 89/3/6 90/3/6
f 89/3/6 92/3/6 91/3/6
f 143/1/1 124/1/1 123/1/1
f 124/1/1 143/1/1 144/1/1
f 143/1/2 145/1/2 144/1/2
f 145/1/2 143/1/2 146/1/2
f 145/1/3 124/1/3 144/1/3
f 124/1/3 145/1/3 147/1/3
f 148/1/4 143/1/4 123/1/4
f 143/1/4 148/1/4 146/1/4
f 148/1/5 124/1/5 147/1/5
f 124/1/5 148/1/5 123/1/5
f 145/1/6 148/1/6 147/1/6
f 148/1/6 145/1/6 146/1/6
f 151/1/1 150/1/1 149/1/1
f 150/1/1 151/1/1 152/1/1
f 151/1/2 138/1/2 152/1/2
f 138/1/2 151/1/2 137/1/2
f 138/1/3 150/1/3 152/1/3
f 150/1/3 138/1/3 136/1/3
f 135/1/4 151/1/4 149/1/4
f 151/1/4 135/1/4 137/1/4
f 135/1/5 150/1/5 136/1/5
f 150/1/5 135/1/5 149/1/5
f 138/1/6 135/1/6 136/1/6
f 135/1/6 138/1/6 137/1/6
f 155/1/1 154/1/1 153/1/1
f 154/1/1 155/1/1 156/1/1
f 155/1/2 142/1/2 156/1/2
f 142/1/2 155/1/2 141/1/2
f 142/1/3 154/1/3 156/1/3
f 154/1/3 142/1/3 140/1/3
f 139/1/4 155/1/4 153/1/4
f 155/1/4 139/1/4 141/1/4
f 139/1/5 154/1/5 140/1/5
f 154/1/5 139/1/5 153/1/5
f 142/1/6 139/1/6 140/1/6
f 139/1/6 142/1/6 141/1/6
f 159/1/1 158/1/1 157/1/1
f 158/1/1 159/1/1 160/1/1
f 159/1/2 120/1/2 160/1/2
f 120/1/2 159/1/2 119/1/2
f 120/1/3 158/1/3 160/1/3
f 158/1/3 120/1/3 118/1/3
f 117/1/4 159/1/4 157/1/4
f 159/1/4 117/1/4 119/1/4
f 117/1/5 158/1/5 118/1/5
f 158/1/5 117/1/5 157/1/5
f 120/1/6 117/1/6 118/1/6
f 117/1/6 120/1/6 119/1/6
f 163/3/1 162/3/1 161/3/1
f 162/3/1 163/3/1 164/3/1
f 163/3/2 160/3/2 164/3/2
f 160/3/2 163/3/2 159/3/2
f 160/3/3 162/3/3 164/3/3
f 162/3/3 160/3/3 158/3/3
f 157/3/4 163/3/4 161/3/4
f 163/3/4 157/3/4 159/3/4
f 157/3/5 162/3/5 158/3/5
f 162/3/5 157/3/5 161/3/5
f 160/3/6 157/3/6 158/3/6
f 157/3/6 160/3/6 159/3/6
f 167/1/1 166/1/1 165/1/1
f 166/1/1 167/1/1 168/1/1
f 167/1/2 164/1/2 168/1/2
f 164/1/2 167/1/2 163/1/2
f 164/1/3 166/1/3 168/1/3
f 166/1/3 164/1/3 162/1/3
f 161/1/4 167/1/4 165/1/4
f 167/1/4 161/1/4 163/1/4
f 161/1/5 166/1/5 162/1/5
f 166/1/5 161/1/5 165/1/5
f 164/1/6 161/1/6 162/1/6
f 161/1/6 164/1/6 163/1/6
f 171/2/1 170/2/1 169/2/1
f 170/2/1 171/2/1 172/2/1
f 171/2/2 173/2/2 172/2/2
f 173/2/2 171/2/2 174/2/2
f 173/2/3 170/2/3 172/2/3
f 170/2/3 173/2/3 175/2/3
f 176/2/4 171/2/4 169/2/4
f 171/2/4 176/2/4 174/2/4
f 176/2/5 170/2/5 175/2/5
f 170/2/5 176/2/5 169/2/5
f 173/2/6 176/2/6 175/2/6
f 176/2/6 173/2/6 174/2/6
f 179/1/1 178/1/1 177/1/1
f 178/1/1 179/1/1 180/1/1
f 179/1/2 181/1/2 180/1/2
f 181/1/2 179/1/2 182/1/2
f 181/1/3 178/1/3 180/1/3
f 178/1/3 181/1/3 183/1/3
f 184/1/4 179/1/4 177/1/4
f 179/1/4 184/1/4 182/1/4
f 184/1/5 178/1/5 183/1/5
f 178/1/5 184/1/5 177/1/5
f 181/1/6 184/1/6 183/1/6
f 184/1/6 181/1/6 182/1/6
f 69/3/1 186/3/1 185/3/1
f 186/3/1 69/3/1 70/3/1
f 69/3/2 187/3/2 70/3/2
f 187/3/2 69/3/2 188/3/2
f 187/3/3 186/3/3 70/3/3
f 186/3/3 187/3/3 181/3/3
f 182/3/4 69/3/4 185/3/4
f 69/3/4 182/3/4 188/3/4
f 182/3/5 186/3/5 181/3/5
f 186/3/5 182/3/5 185/3/5
f 187/3/6 182/3/6 181/3/6
f 182/3/6 187/3/6 188/3/6
f 189/3/1 100/3/1 99/3/1
f 100/3/1 189/3/1 190/3/1
f 189/3/2 191/3/2 190/3/2
f 191/3/2 189/3/2 192/3/2
f 191/3/3 100/3/3 190/3/3
f 100/3/3 191/3/3 193/3/3
f 194/3/4 189/3/4 99/3/4
f 189/3/4 194/3/4 192/3/4
f 194/3/5 100/3/5 193/3/5
f 100/3/5 194/3/5 99/3/5
f 191/3/6 194/3/6 193/3/6
f 194/3/6 191/3/6 192/3/6
f 197/1/1 196/1/1 195/1/1
f 196/1/1 197/1/1 198/1/1
f 197/1/2 199/1/2 198/1/2
f 199/1/2 197/1/2 200/1/2
f 199/1/3 196/1/3 198/1/3
f 196/1/3 199/1/3 191/1/3
f 192/1/4 197/1/4 195/1/4
f 197/1/4 192/1/4 200/1/4
f 192/1/5 196/1/5 191/1/5
f 196/1/5 192/1/5 195/1/5
f 199/1/6 192/1/6 191/1/6
f 192/1/6 199/1/6 200/1/6
f 203/1/1 202/1/1 201/1/1
f 202/1/1 203/1/1 204/1/1
f 203/1/2 205/1/2 204/1/2
f 205/1/2 203/1/2 206/1/2
f 205/1/3 202/1/3 204/1/3
f 202/1/3 205/1/3 207/1/3
f 208/1/4 203/1/4 201/1/4
f 203/1/4 208/1/4 206/1/4
f 208/1/5 202/1/5 207/1/5
f 202/1/5 208/1/5 201/1/5
f 205/1/6 208/1/6 207/1/6
f 208/1/6 205/1/6 206/1/6
f 211/1/1 210/1/1 209/1/1
f 210/1/1 211/1/1 212/1/1
f 211/1/2 213/1/2 212/1/2
f 213/1/2 211/1/2 214/1/2
f 213/1/3 210/1/3 212/1/3
f 210/1/3 213/1/3 215/1/3
f 216/1/4 211/1/4 209/1/4
f 211/1/4 216/1/4 214/1/4
f 216/1/5 210/1/5 215/1/5
f 210/1/5 216/1/5 209/1/5
f 213/1/6 216/1/6 215/1/6
f 216/1/6 213/1/6 214/1/6
f 219/1/1 218/1/1 217/1/1
f 218/1/1 219/1/1 220/1/1
f 219/1/2 221/1/2 220/1/2
f 221/1/2 219/1/2 222/1/2
f 221/1/3 218/1/3 220/1/3
f 218/1/3 221/1/3 223/1/3
f 224/1/4 219/1/4 217/1/4
f 219/1/4 224/1/4 222/1/4
f 224/1/5 218/1/5 223/1/5
f 218/1/5 224/1/5 217/1/5
f 221/1/6 224/1/6 223/1/6
f 224/1/6 221/1/6 222/1/6

