# Created by Kenney (www.kenney.nl)

mtllib Asteroid.mtl

v 8 -7 1.2
v 8 -7 -1.2
v 7 -7 1.2
v 7 -7 -1.2
v 7 9 -1.2
v 7 9 1.2
v 8 9 -1.2
v 8 9 1.2
v 7 8 1.2
v 7 8 -1.2
v -8 8 1.2
v -8 8 -1.2
v -8 9 -1.2
v -8 9 1.2
v 8 8 1.2
v 8 8 -1.2
v 7 -6 2.4
v 7 -6 -2.4
v 6 -6 2.4
v 6 -6 -2.4
v 6 8 -2.4
v 6 8 2.4
v 7 8 -2.4
v 7 8 2.4
v 6 7 2.4
v 6 7 -2.4
v -7 7 2.4
v -7 7 -2.4
v -7 8 -2.4
v -7 8 2.4
v -7 -7 1.2
v -7 -7 -1.2
v -8 -7 1.2
v -8 -7 -1.2
v -7 8 -1.2
v -7 8 1.2
v 6 -5 3.6
v 6 -5 -3.6
v 5 -5 3.6
v 5 -5 -3.6
v 5 7 -3.6
v 5 7 3.6
v 6 7 -3.6
v 6 7 3.6
v 5 6 3.6
v 5 6 -3.6
v -6 6 3.6
v -6 6 -3.6
v -6 7 -3.6
v -6 7 3.6
v -6 -6 2.4
v -6 -6 -2.4
v -7 -6 2.4
v -7 -6 -2.4
v -6 7 -2.4
v -6 7 2.4
v 5 -4 4.8
v 5 -4 -4.8
v 4 -4 4.8
v 4 -4 -4.8
v 4 6 -4.8
v 4 6 4.8
v 5 6 -4.8
v 5 6 4.8
v 4 5 4.8
v 4 5 -4.8
v -5 5 4.8
v -5 5 -4.8
v -5 6 -4.8
v -5 6 4.8
v -5 -5 3.6
v -5 -5 -3.6
v -6 -5 3.6
v -6 -5 -3.6
v -5 6 -3.6
v -5 6 3.6
v 4 -3 6
v 4 -3 -6
v 3 -3 6
v 3 -3 -6
v 3 5 -6
v 3 5 6
v 4 5 -6
v 4 5 6
v 3 4 6
v 3 4 -6
v -4 4 6
v -4 4 -6
v -4 5 -6
v -4 5 6
v -4 -4 4.8
v -4 -4 -4.8
v -5 -4 4.8
v -5 -4 -4.8
v -4 5 -4.8
v -4 5 4.8
v 3 -2 7.2
v 3 -2 -7.2
v 2 -2 7.2
v 2 -2 -7.2
v 2 4 -7.2
v 2 4 7.2
v 3 4 -7.2
v 3 4 7.2
v 2 3 7.2
v 2 3 -7.2
v -3 3 7.2
v -3 3 -7.2
v -3 4 -7.2
v -3 4 7.2
v -3 -3 6
v -3 -3 -6
v -4 -3 6
v -4 -3 -6
v -3 4 -6
v -3 4 6
v 2 -1 8.400001
v 2 -1 -8.400001
v 1 -1 8.400001
v 1 -1 -8.400001
v 1 3 -8.400001
v 1 3 8.400001
v 2 3 -8.400001
v 2 3 8.400001
v 1 2 8.400001
v 1 2 -8.400001
v -2 2 8.400001
v -2 2 -8.400001
v -2 3 -8.400001
v -2 3 8.400001
v -2 -2 7.2
v -2 -2 -7.2
v -3 -2 7.2
v -3 -2 -7.2
v -2 3 -7.2
v -2 3 7.2
v 1 0 9.6
v 1 0 -9.6
v -1 0 9.6
v -1 0 -9.6
v -1 2 -9.6
v -1 2 9.6
v 1 2 -9.6
v 1 2 9.6
v -1 -1 8.400001
v -1 -1 -8.400001
v -2 -1 8.400001
v -2 -1 -8.400001
v -1 2 -8.400001
v -1 2 8.400001
v -1 0 -8.400001
v -1 0 8.400001
v 1 0 -8.400001
v 1 0 8.400001
v -2 -1 -7.2
v -2 -1 7.2
v 2 -1 -7.2
v 2 -1 7.2
v -3 -2 -6
v -3 -2 6
v 3 -2 -6
v 3 -2 6
v -4 -3 -4.8
v -4 -3 4.8
v 4 -3 -4.8
v 4 -3 4.8
v -5 -4 -3.6
v -5 -4 3.6
v 5 -4 -3.6
v 5 -4 3.6
v -6 -5 -2.4
v -6 -5 2.4
v 6 -5 -2.4
v 6 -5 2.4
v -7 -6 -1.2
v -7 -6 1.2
v 7 -6 -1.2
v 7 -6 1.2

vn 0 -1 0
vn -1 0 0
vn 0 0 -1
vn 0 0 1
vn 1 0 0
vn 0 1 0

vt 0 0

usemtl color12

f 3/1/1 2/1/1 1/1/1
f 2/1/1 3/1/1 4/1/1
f 3/1/2 5/1/2 4/1/2
f 5/1/2 3/1/2 6/1/2
f 5/1/3 2/1/3 4/1/3
f 2/1/3 5/1/3 7/1/3
f 8/1/4 3/1/4 1/1/4
f 3/1/4 8/1/4 6/1/4
f 8/1/5 2/1/5 7/1/5
f 2/1/5 8/1/5 1/1/5
f 5/1/6 8/1/6 7/1/6
f 8/1/6 5/1/6 6/1/6
f 11/1/1 10/1/1 9/1/1
f 10/1/1 11/1/1 12/1/1
f 11/1/2 13/1/2 12/1/2
f 13/1/2 11/1/2 14/1/2
f 13/1/3 10/1/3 12/1/3
f 10/1/3 13/1/3 5/1/3
f 6/1/4 11/1/4 9/1/4
f 11/1/4 6/1/4 14/1/4
f 6/1/5 10/1/5 5/1/5
f 10/1/5 6/1/5 9/1/5
f 13/1/6 6/1/6 5/1/6
f 6/1/6 13/1/6 14/1/6
f 11/1/1 16/1/1 15/1/1
f 16/1/1 11/1/1 12/1/1
f 11/1/2 13/1/2 12/1/2
f 13/1/2 11/1/2 14/1/2
f 13/1/3 16/1/3 12/1/3
f 16/1/3 13/1/3 7/1/3
f 8/1/4 11/1/4 15/1/4
f 11/1/4 8/1/4 14/1/4
f 8/1/5 16/1/5 7/1/5
f 16/1/5 8/1/5 15/1/5
f 13/1/6 8/1/6 7/1/6
f 8/1/6 13/1/6 14/1/6
f 19/1/1 18/1/1 17/1/1
f 18/1/1 19/1/1 20/1/1
f 19/1/2 21/1/2 20/1/2
f 21/1/2 19/1/2 22/1/2
f 21/1/3 18/1/3 20/1/3
f 18/1/3 21/1/3 23/1/3
f 24/1/4 19/1/4 17/1/4
f 19/1/4 24/1/4 22/1/4
f 24/1/5 18/1/5 23/1/5
f 18/1/5 24/1/5 17/1/5
f 21/1/6 24/1/6 23/1/6
f 24/1/6 21/1/6 22/1/6
f 27/1/1 26/1/1 25/1/1
f 26/1/1 27/1/1 28/1/1
f 27/1/2 29/1/2 28/1/2
f 29/1/2 27/1/2 30/1/2
f 29/1/3 26/1/3 28/1/3
f 26/1/3 29/1/3 21/1/3
f 22/1/4 27/1/4 25/1/4
f 27/1/4 22/1/4 30/1/4
f 22/1/5 26/1/5 21/1/5
f 26/1/5 22/1/5 25/1/5
f 29/1/6 22/1/6 21/1/6
f 22/1/6 29/1/6 30/1/6
f 33/1/1 32/1/1 31/1/1
f 32/1/1 33/1/1 34/1/1
f 33/1/2 12/1/2 34/1/2
f 12/1/2 33/1/2 11/1/2
f 12/1/3 32/1/3 34/1/3
f 32/1/3 12/1/3 35/1/3
f 36/1/4 33/1/4 31/1/4
f 33/1/4 36/1/4 11/1/4
f 36/1/5 32/1/5 35/1/5
f 32/1/5 36/1/5 31/1/5
f 12/1/6 36/1/6 35/1/6
f 36/1/6 12/1/6 11/1/6
f 39/1/1 38/1/1 37/1/1
f 38/1/1 39/1/1 40/1/1
f 39/1/2 41/1/2 40/1/2
f 41/1/2 39/1/2 42/1/2
f 41/1/3 38/1/3 40/1/3
f 38/1/3 41/1/3 43/1/3
f 44/1/4 39/1/4 37/1/4
f 39/1/4 44/1/4 42/1/4
f 44/1/5 38/1/5 43/1/5
f 38/1/5 44/1/5 37/1/5
f 41/1/6 44/1/6 43/1/6
f 44/1/6 41/1/6 42/1/6
f 47/1/1 46/1/1 45/1/1
f 46/1/1 47/1/1 48/1/1
f 47/1/2 49/1/2 48/1/2
f 49/1/2 47/1/2 50/1/2
f 49/1/3 46/1/3 48/1/3
f 46/1/3 49/1/3 41/1/3
f 42/1/4 47/1/4 45/1/4
f 47/1/4 42/1/4 50/1/4
f 42/1/5 46/1/5 41/1/5
f 46/1/5 42/1/5 45/1/5
f 49/1/6 42/1/6 41/1/6
f 42/1/6 49/1/6 50/1/6
f 53/1/1 52/1/1 51/1/1
f 52/1/1 53/1/1 54/1/1
f 53/1/2 28/1/2 54/1/2
f 28/1/2 53/1/2 27/1/2
f 28/1/3 52/1/3 54/1/3
f 52/1/3 28/1/3 55/1/3
f 56/1/4 53/1/4 51/1/4
f 53/1/4 56/1/4 27/1/4
f 56/1/5 52/1/5 55/1/5
f 52/1/5 56/1/5 51/1/5
f 28/1/6 56/1/6 55/1/6
f 56/1/6 28/1/6 27/1/6
f 59/1/1 58/1/1 57/1/1
f 58/1/1 59/1/1 60/1/1
f 59/1/2 61/1/2 60/1/2
f 61/1/2 59/1/2 62/1/2
f 61/1/3 58/1/3 60/1/3
f 58/1/3 61/1/3 63/1/3
f 64/1/4 59/1/4 57/1/4
f 59/1/4 64/1/4 62/1/4
f 64/1/5 58/1/5 63/1/5
f 58/1/5 64/1/5 57/1/5
f 61/1/6 64/1/6 63/1/6
f 64/1/6 61/1/6 62/1/6
f 67/1/1 66/1/1 65/1/1
f 66/1/1 67/1/1 68/1/1
f 67/1/2 69/1/2 68/1/2
f 69/1/2 67/1/2 70/1/2
f 69/1/3 66/1/3 68/1/3
f 66/1/3 69/1/3 61/1/3
f 62/1/4 67/1/4 65/1/4
f 67/1/4 62/1/4 70/1/4
f 62/1/5 66/1/5 61/1/5
f 66/1/5 62/1/5 65/1/5
f 69/1/6 62/1/6 61/1/6
f 62/1/6 69/1/6 70/1/6
f 73/1/1 72/1/1 71/1/1
f 72/1/1 73/1/1 74/1/1
f 73/1/2 48/1/2 74/1/2
f 48/1/2 73/1/2 47/1/2
f 48/1/3 72/1/3 74/1/3
f 72/1/3 48/1/3 75/1/3
f 76/1/4 73/1/4 71/1/4
f 73/1/4 76/1/4 47/1/4
f 76/1/5 72/1/5 75/1/5
f 72/1/5 76/1/5 71/1/5
f 48/1/6 76/1/6 75/1/6
f 76/1/6 48/1/6 47/1/6
f 79/1/1 78/1/1 77/1/1
f 78/1/1 79/1/1 80/1/1
f 79/1/2 81/1/2 80/1/2
f 81/1/2 79/1/2 82/1/2
f 81/1/3 78/1/3 80/1/3
f 78/1/3 81/1/3 83/1/3
f 84/1/4 79/1/4 77/1/4
f 79/1/4 84/1/4 82/1/4
f 84/1/5 78/1/5 83/1/5
f 78/1/5 84/1/5 77/1/5
f 81/1/6 84/1/6 83/1/6
f 84/1/6 81/1/6 82/1/6
f 87/1/1 86/1/1 85/1/1
f 86/1/1 87/1/1 88/1/1
f 87/1/2 89/1/2 88/1/2
f 89/1/2 87/1/2 90/1/2
f 89/1/3 86/1/3 88/1/3
f 86/1/3 89/1/3 81/1/3
f 82/1/4 87/1/4 85/1/4
f 87/1/4 82/1/4 90/1/4
f 82/1/5 86/1/5 81/1/5
f 86/1/5 82/1/5 85/1/5
f 89/1/6 82/1/6 81/1/6
f 82/1/6 89/1/6 90/1/6
f 93/1/1 92/1/1 91/1/1
f 92/1/1 93/1/1 94/1/1
f 93/1/2 68/1/2 94/1/2
f 68/1/2 93/1/2 67/1/2
f 68/1/3 92/1/3 94/1/3
f 92/1/3 68/1/3 95/1/3
f 96/1/4 93/1/4 91/1/4
f 93/1/4 96/1/4 67/1/4
f 96/1/5 92/1/5 95/1/5
f 92/1/5 96/1/5 91/1/5
f 68/1/6 96/1/6 95/1/6
f 96/1/6 68/1/6 67/1/6
f 99/1/1 98/1/1 97/1/1
f 98/1/1 99/1/1 100/1/1
f 99/1/2 101/1/2 100/1/2
f 101/1/2 99/1/2 102/1/2
f 101/1/3 98/1/3 100/1/3
f 98/1/3 101/1/3 103/1/3
f 104/1/4 99/1/4 97/1/4
f 99/1/4 104/1/4 102/1/4
f 104/1/5 98/1/5 103/1/5
f 98/1/5 104/1/5 97/1/5
f 101/1/6 104/1/6 103/1/6
f 104/1/6 101/1/6 102/1/6
f 107/1/1 106/1/1 105/1/1
f 106/1/1 107/1/1 108/1/1
f 107/1/2 109/1/2 108/1/2
f 109/1/2 107/1/2 110/1/2
f 109/1/3 106/1/3 108/1/3
f 106/1/3 109/1/3 101/1/3
f 102/1/4 107/1/4 105/1/4
f 107/1/4 102/1/4 110/1/4
f 102/1/5 106/1/5 101/1/5
f 106/1/5 102/1/5 105/1/5
f 109/1/6 102/1/6 101/1/6
f 102/1/6 109/1/6 110/1/6
f 113/1/1 112/1/1 111/1/1
f 112/1/1 113/1/1 114/1/1
f 113/1/2 88/1/2 114/1/2
f 88/1/2 113/1/2 87/1/2
f 88/1/3 112/1/3 114/1/3
f 112/1/3 88/1/3 115/1/3
f 116/1/4 113/1/4 111/1/4
f 113/1/4 116/1/4 87/1/4
f 116/1/5 112/1/5 115/1/5
f 112/1/5 116/1/5 111/1/5
f 88/1/6 116/1/6 115/1/6
f 116/1/6 88/1/6 87/1/6
f 119/1/1 118/1/1 117/1/1
f 118/1/1 119/1/1 120/1/1
f 119/1/2 121/1/2 120/1/2
f 121/1/2 119/1/2 122/1/2
f 121/1/3 118/1/3 120/1/3
f 118/1/3 121/1/3 123/1/3
f 124/1/4 119/1/4 117/1/4
f 119/1/4 124/1/4 122/1/4
f 124/1/5 118/1/5 123/1/5
f 118/1/5 124/1/5 117/1/5
f 121/1/6 124/1/6 123/1/6
f 124/1/6 121/1/6 122/1/6
f 127/1/1 126/1/1 125/1/1
f 126/1/1 127/1/1 128/1/1
f 127/1/2 129/1/2 128/1/2
f 129/1/2 127/1/2 130/1/2
f 129/1/3 126/1/3 128/1/3
f 126/1/3 129/1/3 121/1/3
f 122/1/4 127/1/4 125/1/4
f 127/1/4 122/1/4 130/1/4
f 122/1/5 126/1/5 121/1/5
f 126/1/5 122/1/5 125/1/5
f 129/1/6 122/1/6 121/1/6
f 122/1/6 129/1/6 130/1/6
f 133/1/1 132/1/1 131/1/1
f 132/1/1 133/1/1 134/1/1
f 133/1/2 108/1/2 134/1/2
f 108/1/2 133/1/2 107/1/2
f 108/1/3 132/1/3 134/1/3
f 132/1/3 108/1/3 135/1/3
f 136/1/4 133/1/4 131/1/4
f 133/1/4 136/1/4 107/1/4
f 136/1/5 132/1/5 135/1/5
f 132/1/5 136/1/5 131/1/5
f 108/1/6 136/1/6 135/1/6
f 136/1/6 108/1/6 107/1/6
f 139/1/1 138/1/1 137/1/1
f 138/1/1 139/1/1 140/1/1
f 139/1/2 141/1/2 140/1/2
f 141/1/2 139/1/2 142/1/2
f 141/1/3 138/1/3 140/1/3
f 138/1/3 141/1/3 143/1/3
f 144/1/4 139/1/4 137/1/4
f 139/1/4 144/1/4 142/1/4
f 144/1/5 138/1/5 143/1/5
f 138/1/5 144/1/5 137/1/5
f 141/1/6 144/1/6 143/1/6
f 144/1/6 141/1/6 142/1/6
f 147/1/1 146/1/1 145/1/1
f 146/1/1 147/1/1 148/1/1
f 147/1/2 128/1/2 148/1/2
f 128/1/2 147/1/2 127/1/2
f 128/1/3 146/1/3 148/1/3
f 146/1/3 128/1/3 149/1/3
f 150/1/4 147/1/4 145/1/4
f 147/1/4 150/1/4 127/1/4
f 150/1/5 146/1/5 149/1/5
f 146/1/5 150/1/5 145/1/5
f 128/1/6 150/1/6 149/1/6
f 150/1/6 128/1/6 127/1/6
f 145/1/1 120/1/1 119/1/1
f 120/1/1 145/1/1 146/1/1
f 145/1/2 151/1/2 146/1/2
f 151/1/2 145/1/2 152/1/2
f 151/1/3 120/1/3 146/1/3
f 120/1/3 151/1/3 153/1/3
f 154/1/4 145/1/4 119/1/4
f 145/1/4 154/1/4 152/1/4
f 154/1/5 120/1/5 153/1/5
f 120/1/5 154/1/5 119/1/5
f 151/1/6 154/1/6 153/1/6
f 154/1/6 151/1/6 152/1/6
f 131/1/1 100/1/1 99/1/1
f 100/1/1 131/1/1 132/1/1
f 131/1/2 155/1/2 132/1/2
f 155/1/2 131/1/2 156/1/2
f 155/1/3 100/1/3 132/1/3
f 100/1/3 155/1/3 157/1/3
f 158/1/4 131/1/4 99/1/4
f 131/1/4 158/1/4 156/1/4
f 158/1/5 100/1/5 157/1/5
f 100/1/5 158/1/5 99/1/5
f 155/1/6 158/1/6 157/1/6
f 158/1/6 155/1/6 156/1/6
f 111/1/1 80/1/1 79/1/1
f 80/1/1 111/1/1 112/1/1
f 111/1/2 159/1/2 112/1/2
f 159/1/2 111/1/2 160/1/2
f 159/1/3 80/1/3 112/1/3
f 80/1/3 159/1/3 161/1/3
f 162/1/4 111/1/4 79/1/4
f 111/1/4 162/1/4 160/1/4
f 162/1/5 80/1/5 161/1/5
f 80/1/5 162/1/5 79/1/5
f 159/1/6 162/1/6 161/1/6
f 162/1/6 159/1/6 160/1/6
f 91/1/1 60/1/1 59/1/1
f 60/1/1 91/1/1 92/1/1
f 91/1/2 163/1/2 92/1/2
f 163/1/2 91/1/2 164/1/2
f 163/1/3 60/1/3 92/1/3
f 60/1/3 163/1/3 165/1/3
f 166/1/4 91/1/4 59/1/4
f 91/1/4 166/1/4 164/1/4
f 166/1/5 60/1/5 165/1/5
f 60/1/5 166/1/5 59/1/5
f 163/1/6 166/1/6 165/1/6
f 166/1/6 163/1/6 164/1/6
f 71/1/1 40/1/1 39/1/1
f 40/1/1 71/1/1 72/1/1
f 71/1/2 167/1/2 72/1/2
f 167/1/2 71/1/2 168/1/2
f 167/1/3 40/1/3 72/1/3
f 40/1/3 167/1/3 169/1/3
f 170/1/4 71/1/4 39/1/4
f 71/1/4 170/1/4 168/1/4
f 170/1/5 40/1/5 169/1/5
f 40/1/5 170/1/5 39/1/5
f 167/1/6 170/1/6 169/1/6
f 170/1/6 167/1/6 168/1/6
f 51/1/1 20/1/1 19/1/1
f 20/1/1 51/1/1 52/1/1
f 51/1/2 171/1/2 52/1/2
f 171/1/2 51/1/2 172/1/2
f 171/1/3 20/1/3 52/1/3
f 20/1/3 171/1/3 173/1/3
f 174/1/4 51/1/4 19/1/4
f 51/1/4 174/1/4 172/1/4
f 174/1/5 20/1/5 173/1/5
f 20/1/5 174/1/5 19/1/5
f 171/1/6 174/1/6 173/1/6
f 174/1/6 171/1/6 172/1/6
f 31/1/1 4/1/1 3/1/1
f 4/1/1 31/1/1 32/1/1
f 31/1/2 175/1/2 32/1/2
f 175/1/2 31/1/2 176/1/2
f 175/1/3 4/1/3 32/1/3
f 4/1/3 175/1/3 177/1/3
f 178/1/4 31/1/4 3/1/4
f 31/1/4 178/1/4 176/1/4
f 178/1/5 4/1/5 177/1/5
f 4/1/5 178/1/5 3/1/5
f 175/1/6 178/1/6 177/1/6
f 178/1/6 175/1/6 176/1/6
f 27/1/1 26/1/1 25/1/1
f 26/1/1 27/1/1 28/1/1
f 27/1/2 29/1/2 28/1/2
f 29/1/2 27/1/2 30/1/2
f 29/1/3 26/1/3 28/1/3
f 26/1/3 29/1/3 21/1/3
f 22/1/4 27/1/4 25/1/4
f 27/1/4 22/1/4 30/1/4
f 22/1/5 26/1/5 21/1/5
f 26/1/5 22/1/5 25/1/5
f 29/1/6 22/1/6 21/1/6
f 22/1/6 29/1/6 30/1/6
f 47/1/1 46/1/1 45/1/1
f 46/1/1 47/1/1 48/1/1
f 47/1/2 49/1/2 48/1/2
f 49/1/2 47/1/2 50/1/2
f 49/1/3 46/1/3 48/1/3
f 46/1/3 49/1/3 41/1/3
f 42/1/4 47/1/4 45/1/4
f 47/1/4 42/1/4 50/1/4
f 42/1/5 46/1/5 41/1/5
f 46/1/5 42/1/5 45/1/5
f 49/1/6 42/1/6 41/1/6
f 42/1/6 49/1/6 50/1/6
f 67/1/1 66/1/1 65/1/1
f 66/1/1 67/1/1 68/1/1
f 67/1/2 69/1/2 68/1/2
f 69/1/2 67/1/2 70/1/2
f 69/1/3 66/1/3 68/1/3
f 66/1/3 69/1/3 61/1/3
f 62/1/4 67/1/4 65/1/4
f 67/1/4 62/1/4 70/1/4
f 62/1/5 66/1/5 61/1/5
f 66/1/5 62/1/5 65/1/5
f 69/1/6 62/1/6 61/1/6
f 62/1/6 69/1/6 70/1/6
f 87/1/1 86/1/1 85/1/1
f 86/1/1 87/1/1 88/1/1
f 87/1/2 89/1/2 88/1/2
f 89/1/2 87/1/2 90/1/2
f 89/1/3 86/1/3 88/1/3
f 86/1/3 89/1/3 81/1/3
f 82/1/4 87/1/4 85/1/4
f 87/1/4 82/1/4 90/1/4
f 82/1/5 86/1/5 81/1/5
f 86/1/5 82/1/5 85/1/5
f 89/1/6 82/1/6 81/1/6
f 82/1/6 89/1/6 90/1/6
f 107/1/1 106/1/1 105/1/1
f 106/1/1 107/1/1 108/1/1
f 107/1/2 109/1/2 108/1/2
f 109/1/2 107/1/2 110/1/2
f 109/1/3 106/1/3 108/1/3
f 106/1/3 109/1/3 101/1/3
f 102/1/4 107/1/4 105/1/4
f 107/1/4 102/1/4 110/1/4
f 102/1/5 106/1/5 101/1/5
f 106/1/5 102/1/5 105/1/5
f 109/1/6 102/1/6 101/1/6
f 102/1/6 109/1/6 110/1/6
f 127/1/1 126/1/1 125/1/1
f 126/1/1 127/1/1 128/1/1
f 127/1/2 129/1/2 128/1/2
f 129/1/2 127/1/2 130/1/2
f 129/1/3 126/1/3 128/1/3
f 126/1/3 129/1/3 121/1/3
f 122/1/4 127/1/4 125/1/4
f 127/1/4 122/1/4 130/1/4
f 122/1/5 126/1/5 121/1/5
f 126/1/5 122/1/5 125/1/5
f 129/1/6 122/1/6 121/1/6
f 122/1/6 129/1/6 130/1/6

