# Created by Kenney (www.kenney.nl)

mtllib Chunky Ship.mtl

v 6 1 -1
v 6 2 -1
v 6 1 1
v 6 2 1
v 7 1 -1
v 7 1 1
v 5 1 1
v 5 1 -1
v 0 7 -0.5
v 0 8 -0.5
v 0 7 0.5
v 0 8 0.5
v 1 7 -0.5
v 1 7 0.5
v -1 7 0.5
v -1 7 -0.5
v -6 1 -1
v -6 2 -1
v -6 1 1
v -6 2 1
v -5 1 -1
v -5 1 1
v -7 1 1
v -7 1 -1
v 1 6 0.5
v 1 6 -0.5
v -1 6 0.5
v -1 6 -0.5
v 1 5 1
v 1 5 -1
v -1 5 1
v -1 5 -1
v -1 6 -1
v -1 6 1
v 1 6 -1
v 1 6 1
v 2 3 1.5
v 2 3 -1.5
v 1 3 1.5
v 1 3 -1.5
v 1 5 -1.5
v 1 5 1.5
v 2 5 -1.5
v 2 5 1.5
v 1 4 1.5
v 1 4 -1.5
v -1 4 1.5
v -1 4 -1.5
v -1 5 -1.5
v -1 5 1.5
v -1 3 1.5
v -1 3 -1.5
v -2 3 1.5
v -2 3 -1.5
v -2 5 -1.5
v -2 5 1.5
v 1 1 2.5
v 1 1 -2.5
v -1 1 2.5
v -1 1 -2.5
v -1 4 -2.5
v -1 4 2.5
v 1 4 -2.5
v 1 4 2.5
v 3 0 1.5
v 3 0 -1.5
v 2 0 1.5
v 2 0 -1.5
v 3 3 -1.5
v 3 3 1.5
v 2 0 2
v 2 0 -2
v 1 0 2
v 1 0 -2
v 1 3 -2
v 1 3 2
v 2 3 -2
v 2 3 2
v -1 0 2
v -1 0 -2
v -2 0 2
v -2 0 -2
v -2 3 -2
v -2 3 2
v -1 3 -2
v -1 3 2
v -2 0 1.5
v -2 0 -1.5
v -3 0 1.5
v -3 0 -1.5
v -3 3 -1.5
v -3 3 1.5
v 7 -1 1
v 7 -1 -1
v 5 -1 1
v 5 -1 -1
v 4 -4 1.5
v 4 -4 -1.5
v 3 -4 1.5
v 3 -4 -1.5
v 3 1 -1.5
v 3 1 1.5
v 4 1 -1.5
v 4 1 1.5
v 1 0 3
v 1 0 -3
v -1 0 3
v -1 0 -3
v -1 1 -3
v -1 1 3
v 1 1 -3
v 1 1 3
v -3 -4 1.5
v -3 -4 -1.5
v -4 -4 1.5
v -4 -4 -1.5
v -4 1 -1.5
v -4 1 1.5
v -3 1 -1.5
v -3 1 1.5
v -5 -1 1
v -5 -1 -1
v -7 -1 1
v -7 -1 -1
v 3 -4 2
v 3 -4 -2
v 2 -4 2
v 2 -4 -2
v 3 0 -2
v 3 0 2
v 2 -3 2.5
v 2 -3 -2.5
v 1 -3 2.5
v 1 -3 -2.5
v 1 0 -2.5
v 1 0 2.5
v 2 0 -2.5
v 2 0 2.5
v 1 -1 4
v 1 -1 -4
v -1 -1 4
v -1 -1 -4
v -1 0 -4
v -1 0 4
v 1 0 -4
v 1 0 4
v -1 -3 2.5
v -1 -3 -2.5
v -2 -3 2.5
v -2 -3 -2.5
v -2 0 -2.5
v -2 0 2.5
v -1 0 -2.5
v -1 0 2.5
v -2 -4 2
v -2 -4 -2
v -3 -4 2
v -3 -4 -2
v -3 0 -2
v -3 0 2
v 8 -3 1.5
v 8 -3 -1.5
v 4 -3 1.5
v 4 -3 -1.5
v 4 -1 -1.5
v 4 -1 1.5
v 8 -1 -1.5
v 8 -1 1.5
v 1 -2 3.5
v 1 -2 -3.5
v -1 -2 3.5
v -1 -2 -3.5
v -1 -1 -3.5
v -1 -1 3.5
v 1 -1 -3.5
v 1 -1 3.5
v -4 -3 1.5
v -4 -3 -1.5
v -8 -3 1.5
v -8 -3 -1.5
v -8 -1 -1.5
v -8 -1 1.5
v -4 -1 -1.5
v -4 -1 1.5
v -1 -2 -2.5
v -1 -2 2.5
v 1 -2 -2.5
v 1 -2 2.5
v 7 -4 0.5
v 7 -4 -0.5
v 5 -4 0.5
v 5 -4 -0.5
v 5 -3 -0.5
v 5 -3 0.5
v 7 -3 -0.5
v 7 -3 0.5
v 2 -5 2
v 2 -5 -2
v 1 -5 2
v 1 -5 -2
v 1 -3 -2
v 1 -3 2
v 2 -3 -2
v 2 -3 2
v 1 -4 2.5
v 1 -4 -2.5
v -1 -4 2.5
v -1 -4 -2.5
v -1 -5 2
v -1 -5 -2
v -2 -5 2
v -2 -5 -2
v -2 -3 -2
v -2 -3 2
v -1 -3 -2
v -1 -3 2
v -5 -4 0.5
v -5 -4 -0.5
v -7 -4 0.5
v -7 -4 -0.5
v -7 -3 -0.5
v -7 -3 0.5
v -5 -3 -0.5
v -5 -3 0.5
v 3 -5 1.5
v 3 -5 -1.5
v 2 -5 1.5
v 2 -5 -1.5
v 2 -4 -1.5
v 2 -4 1.5
v 1 -6 2
v 1 -6 -2
v -1 -6 2
v -1 -6 -2
v -1 -4 -2
v -1 -4 2
v 1 -4 -2
v 1 -4 2
v -2 -5 1.5
v -2 -5 -1.5
v -3 -5 1.5
v -3 -5 -1.5
v -2 -4 -1.5
v -2 -4 1.5
v 2 -6 1
v 2 -6 -1
v 1 -6 1
v 1 -6 -1
v 1 -5 -1
v 1 -5 1
v 2 -5 -1
v 2 -5 1
v -1 -6 1
v -1 -6 -1
v -2 -6 1
v -2 -6 -1
v -2 -5 -1
v -2 -5 1
v -1 -5 -1
v -1 -5 1
v 1 -7 0.5
v 1 -7 -0.5
v -1 -7 0.5
v -1 -7 -0.5
v -1 -6 -0.5
v -1 -6 0.5
v 1 -6 -0.5
v 1 -6 0.5

vn -1 0 0
vn 0 0 -1
vn 0.7071068 0.7071068 0
vn 0 0 1
vn 0 -1 0
vn 1 0 0
vn -0.7071068 0.7071068 0
vn 0.7071068 0.7071068 0
vn -0.7071068 0.7071068 0
vn 0 1 0

vt 0.1875 0.1875
vt 0.4375 0.1875
vt 0.3125 0.1875
vt 0.6875 0.1875
vt 0.8125 0.1875

usemtl Chunky Ship

f 3/1/1 2/1/1 1/1/1
f 2/1/1 3/1/1 4/1/1
f 2/1/2 5/1/2 1/1/2
f 2/1/3 6/1/3 5/1/3
f 6/1/3 2/1/3 4/1/3
f 4/1/4 3/1/4 6/1/4
f 3/1/5 5/1/5 6/1/5
f 5/1/5 3/1/5 1/1/5
f 7/1/5 1/1/5 3/1/5
f 1/1/5 7/1/5 8/1/5
f 4/1/4 7/1/4 3/1/4
f 2/1/2 1/1/2 8/1/2
f 4/1/6 1/1/6 2/1/6
f 1/1/6 4/1/6 3/1/6
f 7/1/7 2/1/7 8/1/7
f 2/1/7 7/1/7 4/1/7
f 11/1/1 10/1/1 9/1/1
f 10/1/1 11/1/1 12/1/1
f 10/1/2 13/1/2 9/1/2
f 10/1/8 14/1/8 13/1/8
f 14/1/8 10/1/8 12/1/8
f 12/1/4 11/1/4 14/1/4
f 11/1/5 13/1/5 14/1/5
f 13/1/5 11/1/5 9/1/5
f 15/1/5 9/1/5 11/1/5
f 9/1/5 15/1/5 16/1/5
f 12/1/4 15/1/4 11/1/4
f 10/1/2 9/1/2 16/1/2
f 12/1/6 9/1/6 10/1/6
f 9/1/6 12/1/6 11/1/6
f 15/1/9 10/1/9 16/1/9
f 10/1/9 15/1/9 12/1/9
f 19/1/1 18/1/1 17/1/1
f 18/1/1 19/1/1 20/1/1
f 18/1/2 21/1/2 17/1/2
f 18/1/3 22/1/3 21/1/3
f 22/1/3 18/1/3 20/1/3
f 20/1/4 19/1/4 22/1/4
f 19/1/5 21/1/5 22/1/5
f 21/1/5 19/1/5 17/1/5
f 23/1/5 17/1/5 19/1/5
f 17/1/5 23/1/5 24/1/5
f 20/1/4 23/1/4 19/1/4
f 18/1/2 17/1/2 24/1/2
f 20/1/6 17/1/6 18/1/6
f 17/1/6 20/1/6 19/1/6
f 23/1/7 18/1/7 24/1/7
f 18/1/7 23/1/7 20/1/7
f 27/2/5 26/2/5 25/2/5
f 26/2/5 27/2/5 28/2/5
f 27/2/1 16/2/1 28/2/1
f 16/2/1 27/2/1 15/2/1
f 16/2/2 26/2/2 28/2/2
f 26/2/2 16/2/2 13/2/2
f 14/2/4 27/2/4 25/2/4
f 27/2/4 14/2/4 15/2/4
f 14/2/6 26/2/6 13/2/6
f 26/2/6 14/2/6 25/2/6
f 16/2/10 14/2/10 13/2/10
f 14/2/10 16/2/10 15/2/10
f 31/2/5 30/2/5 29/2/5
f 30/2/5 31/2/5 32/2/5
f 31/2/1 33/2/1 32/2/1
f 33/2/1 31/2/1 34/2/1
f 33/2/2 30/2/2 32/2/2
f 30/2/2 33/2/2 35/2/2
f 36/2/4 31/2/4 29/2/4
f 31/2/4 36/2/4 34/2/4
f 36/2/6 30/2/6 35/2/6
f 30/2/6 36/2/6 29/2/6
f 33/2/10 36/2/10 35/2/10
f 36/2/10 33/2/10 34/2/10
f 39/3/5 38/3/5 37/3/5
f 38/3/5 39/3/5 40/3/5
f 39/3/1 41/3/1 40/3/1
f 41/3/1 39/3/1 42/3/1
f 41/3/2 38/3/2 40/3/2
f 38/3/2 41/3/2 43/3/2
f 44/3/4 39/3/4 37/3/4
f 39/3/4 44/3/4 42/3/4
f 44/3/6 38/3/6 43/3/6
f 38/3/6 44/3/6 37/3/6
f 41/3/10 44/3/10 43/3/10
f 44/3/10 41/3/10 42/3/10
f 47/2/5 46/2/5 45/2/5
f 46/2/5 47/2/5 48/2/5
f 47/2/1 49/2/1 48/2/1
f 49/2/1 47/2/1 50/2/1
f 49/2/2 46/2/2 48/2/2
f 46/2/2 49/2/2 41/2/2
f 42/2/4 47/2/4 45/2/4
f 47/2/4 42/2/4 50/2/4
f 42/2/6 46/2/6 41/2/6
f 46/2/6 42/2/6 45/2/6
f 49/2/10 42/2/10 41/2/10
f 42/2/10 49/2/10 50/2/10
f 53/3/5 52/3/5 51/3/5
f 52/3/5 53/3/5 54/3/5
f 53/3/1 55/3/1 54/3/1
f 55/3/1 53/3/1 56/3/1
f 55/3/2 52/3/2 54/3/2
f 52/3/2 55/3/2 49/3/2
f 50/3/4 53/3/4 51/3/4
f 53/3/4 50/3/4 56/3/4
f 50/3/6 52/3/6 49/3/6
f 52/3/6 50/3/6 51/3/6
f 55/3/10 50/3/10 49/3/10
f 50/3/10 55/3/10 56/3/10
f 59/2/5 58/2/5 57/2/5
f 58/2/5 59/2/5 60/2/5
f 59/2/1 61/2/1 60/2/1
f 61/2/1 59/2/1 62/2/1
f 61/2/2 58/2/2 60/2/2
f 58/2/2 61/2/2 63/2/2
f 64/2/4 59/2/4 57/2/4
f 59/2/4 64/2/4 62/2/4
f 64/2/6 58/2/6 63/2/6
f 58/2/6 64/2/6 57/2/6
f 61/2/10 64/2/10 63/2/10
f 64/2/10 61/2/10 62/2/10
f 67/3/5 66/3/5 65/3/5
f 66/3/5 67/3/5 68/3/5
f 67/3/1 38/3/1 68/3/1
f 38/3/1 67/3/1 37/3/1
f 38/3/2 66/3/2 68/3/2
f 66/3/2 38/3/2 69/3/2
f 70/3/4 67/3/4 65/3/4
f 67/3/4 70/3/4 37/3/4
f 70/3/6 66/3/6 69/3/6
f 66/3/6 70/3/6 65/3/6
f 38/3/10 70/3/10 69/3/10
f 70/3/10 38/3/10 37/3/10
f 73/3/5 72/3/5 71/3/5
f 72/3/5 73/3/5 74/3/5
f 73/3/1 75/3/1 74/3/1
f 75/3/1 73/3/1 76/3/1
f 75/3/2 72/3/2 74/3/2
f 72/3/2 75/3/2 77/3/2
f 78/3/4 73/3/4 71/3/4
f 73/3/4 78/3/4 76/3/4
f 78/3/6 72/3/6 77/3/6
f 72/3/6 78/3/6 71/3/6
f 75/3/10 78/3/10 77/3/10
f 78/3/10 75/3/10 76/3/10
f 81/3/5 80/3/5 79/3/5
f 80/3/5 81/3/5 82/3/5
f 81/3/1 83/3/1 82/3/1
f 83/3/1 81/3/1 84/3/1
f 83/3/2 80/3/2 82/3/2
f 80/3/2 83/3/2 85/3/2
f 86/3/4 81/3/4 79/3/4
f 81/3/4 86/3/4 84/3/4
f 86/3/6 80/3/6 85/3/6
f 80/3/6 86/3/6 79/3/6
f 83/3/10 86/3/10 85/3/10
f 86/3/10 83/3/10 84/3/10
f 89/3/5 88/3/5 87/3/5
f 88/3/5 89/3/5 90/3/5
f 89/3/1 91/3/1 90/3/1
f 91/3/1 89/3/1 92/3/1
f 91/3/2 88/3/2 90/3/2
f 88/3/2 91/3/2 54/3/2
f 53/3/4 89/3/4 87/3/4
f 89/3/4 53/3/4 92/3/4
f 53/3/6 88/3/6 54/3/6
f 88/3/6 53/3/6 87/3/6
f 91/3/10 53/3/10 54/3/10
f 53/3/10 91/3/10 92/3/10
f 95/4/5 94/4/5 93/4/5
f 94/4/5 95/4/5 96/4/5
f 95/4/1 8/4/1 96/4/1
f 8/4/1 95/4/1 7/4/1
f 8/4/2 94/4/2 96/4/2
f 94/4/2 8/4/2 5/4/2
f 6/4/4 95/4/4 93/4/4
f 95/4/4 6/4/4 7/4/4
f 6/4/6 94/4/6 5/4/6
f 94/4/6 6/4/6 93/4/6
f 8/4/10 6/4/10 5/4/10
f 6/4/10 8/4/10 7/4/10
f 99/3/5 98/3/5 97/3/5
f 98/3/5 99/3/5 100/3/5
f 99/3/1 101/3/1 100/3/1
f 101/3/1 99/3/1 102/3/1
f 101/3/2 98/3/2 100/3/2
f 98/3/2 101/3/2 103/3/2
f 104/3/4 99/3/4 97/3/4
f 99/3/4 104/3/4 102/3/4
f 104/3/6 98/3/6 103/3/6
f 98/3/6 104/3/6 97/3/6
f 101/3/10 104/3/10 103/3/10
f 104/3/10 101/3/10 102/3/10
f 107/5/5 106/5/5 105/5/5
f 106/5/5 107/5/5 108/5/5
f 107/5/1 109/5/1 108/5/1
f 109/5/1 107/5/1 110/5/1
f 109/5/2 106/5/2 108/5/2
f 106/5/2 109/5/2 111/5/2
f 112/5/4 107/5/4 105/5/4
f 107/5/4 112/5/4 110/5/4
f 112/5/6 106/5/6 111/5/6
f 106/5/6 112/5/6 105/5/6
f 109/5/10 112/5/10 111/5/10
f 112/5/10 109/5/10 110/5/10
f 115/3/5 114/3/5 113/3/5
f 114/3/5 115/3/5 116/3/5
f 115/3/1 117/3/1 116/3/1
f 117/3/1 115/3/1 118/3/1
f 117/3/2 114/3/2 116/3/2
f 114/3/2 117/3/2 119/3/2
f 120/3/4 115/3/4 113/3/4
f 115/3/4 120/3/4 118/3/4
f 120/3/6 114/3/6 119/3/6
f 114/3/6 120/3/6 113/3/6
f 117/3/10 120/3/10 119/3/10
f 120/3/10 117/3/10 118/3/10
f 123/4/5 122/4/5 121/4/5
f 122/4/5 123/4/5 124/4/5
f 123/4/1 24/4/1 124/4/1
f 24/4/1 123/4/1 23/4/1
f 24/4/2 122/4/2 124/4/2
f 122/4/2 24/4/2 21/4/2
f 22/4/4 123/4/4 121/4/4
f 123/4/4 22/4/4 23/4/4
f 22/4/6 122/4/6 21/4/6
f 122/4/6 22/4/6 121/4/6
f 24/4/10 22/4/10 21/4/10
f 22/4/10 24/4/10 23/4/10
f 127/3/5 126/3/5 125/3/5
f 126/3/5 127/3/5 128/3/5
f 127/3/1 72/3/1 128/3/1
f 72/3/1 127/3/1 71/3/1
f 72/3/2 126/3/2 128/3/2
f 126/3/2 72/3/2 129/3/2
f 130/3/4 127/3/4 125/3/4
f 127/3/4 130/3/4 71/3/4
f 130/3/6 126/3/6 129/3/6
f 126/3/6 130/3/6 125/3/6
f 72/3/10 130/3/10 129/3/10
f 130/3/10 72/3/10 71/3/10
f 133/3/5 132/3/5 131/3/5
f 132/3/5 133/3/5 134/3/5
f 133/3/1 135/3/1 134/3/1
f 135/3/1 133/3/1 136/3/1
f 135/3/2 132/3/2 134/3/2
f 132/3/2 135/3/2 137/3/2
f 138/3/4 133/3/4 131/3/4
f 133/3/4 138/3/4 136/3/4
f 138/3/6 132/3/6 137/3/6
f 132/3/6 138/3/6 131/3/6
f 135/3/10 138/3/10 137/3/10
f 138/3/10 135/3/10 136/3/10
f 141/5/5 140/5/5 139/5/5
f 140/5/5 141/5/5 142/5/5
f 141/5/1 143/5/1 142/5/1
f 143/5/1 141/5/1 144/5/1
f 143/5/2 140/5/2 142/5/2
f 140/5/2 143/5/2 145/5/2
f 146/5/4 141/5/4 139/5/4
f 141/5/4 146/5/4 144/5/4
f 146/5/6 140/5/6 145/5/6
f 140/5/6 146/5/6 139/5/6
f 143/5/10 146/5/10 145/5/10
f 146/5/10 143/5/10 144/5/10
f 149/3/5 148/3/5 147/3/5
f 148/3/5 149/3/5 150/3/5
f 149/3/1 151/3/1 150/3/1
f 151/3/1 149/3/1 152/3/1
f 151/3/2 148/3/2 150/3/2
f 148/3/2 151/3/2 153/3/2
f 154/3/4 149/3/4 147/3/4
f 149/3/4 154/3/4 152/3/4
f 154/3/6 148/3/6 153/3/6
f 148/3/6 154/3/6 147/3/6
f 151/3/10 154/3/10 153/3/10
f 154/3/10 151/3/10 152/3/10
f 157/3/5 156/3/5 155/3/5
f 156/3/5 157/3/5 158/3/5
f 157/3/1 159/3/1 158/3/1
f 159/3/1 157/3/1 160/3/1
f 159/3/2 156/3/2 158/3/2
f 156/3/2 159/3/2 82/3/2
f 81/3/4 157/3/4 155/3/4
f 157/3/4 81/3/4 160/3/4
f 81/3/6 156/3/6 82/3/6
f 156/3/6 81/3/6 155/3/6
f 159/3/10 81/3/10 82/3/10
f 81/3/10 159/3/10 160/3/10
f 163/3/5 162/3/5 161/3/5
f 162/3/5 163/3/5 164/3/5
f 163/3/1 165/3/1 164/3/1
f 165/3/1 163/3/1 166/3/1
f 165/3/2 162/3/2 164/3/2
f 162/3/2 165/3/2 167/3/2
f 168/3/4 163/3/4 161/3/4
f 163/3/4 168/3/4 166/3/4
f 168/3/6 162/3/6 167/3/6
f 162/3/6 168/3/6 161/3/6
f 165/3/10 168/3/10 167/3/10
f 168/3/10 165/3/10 166/3/10
f 171/5/5 170/5/5 169/5/5
f 170/5/5 171/5/5 172/5/5
f 171/5/1 173/5/1 172/5/1
f 173/5/1 171/5/1 174/5/1
f 173/5/2 170/5/2 172/5/2
f 170/5/2 173/5/2 175/5/2
f 176/5/4 171/5/4 169/5/4
f 171/5/4 176/5/4 174/5/4
f 176/5/6 170/5/6 175/5/6
f 170/5/6 176/5/6 169/5/6
f 173/5/10 176/5/10 175/5/10
f 176/5/10 173/5/10 174/5/10
f 179/3/5 178/3/5 177/3/5
f 178/3/5 179/3/5 180/3/5
f 179/3/1 181/3/1 180/3/1
f 181/3/1 179/3/1 182/3/1
f 181/3/2 178/3/2 180/3/2
f 178/3/2 181/3/2 183/3/2
f 184/3/4 179/3/4 177/3/4
f 179/3/4 184/3/4 182/3/4
f 184/3/6 178/3/6 183/3/6
f 178/3/6 184/3/6 177/3/6
f 181/3/10 184/3/10 183/3/10
f 184/3/10 181/3/10 182/3/10
f 147/5/5 134/5/5 133/5/5
f 134/5/5 147/5/5 148/5/5
f 147/5/1 185/5/1 148/5/1
f 185/5/1 147/5/1 186/5/1
f 185/5/2 134/5/2 148/5/2
f 134/5/2 185/5/2 187/5/2
f 188/5/4 147/5/4 133/5/4
f 147/5/4 188/5/4 186/5/4
f 188/5/6 134/5/6 187/5/6
f 134/5/6 188/5/6 133/5/6
f 185/5/10 188/5/10 187/5/10
f 188/5/10 185/5/10 186/5/10
f 191/4/5 190/4/5 189/4/5
f 190/4/5 191/4/5 192/4/5
f 191/4/1 193/4/1 192/4/1
f 193/4/1 191/4/1 194/4/1
f 193/4/2 190/4/2 192/4/2
f 190/4/2 193/4/2 195/4/2
f 196/4/4 191/4/4 189/4/4
f 191/4/4 196/4/4 194/4/4
f 196/4/6 190/4/6 195/4/6
f 190/4/6 196/4/6 189/4/6
f 193/4/10 196/4/10 195/4/10
f 196/4/10 193/4/10 194/4/10
f 199/3/5 198/3/5 197/3/5
f 198/3/5 199/3/5 200/3/5
f 199/3/1 201/3/1 200/3/1
f 201/3/1 199/3/1 202/3/1
f 201/3/2 198/3/2 200/3/2
f 198/3/2 201/3/2 203/3/2
f 204/3/4 199/3/4 197/3/4
f 199/3/4 204/3/4 202/3/4
f 204/3/6 198/3/6 203/3/6
f 198/3/6 204/3/6 197/3/6
f 201/3/10 204/3/10 203/3/10
f 204/3/10 201/3/10 202/3/10
f 207/2/5 206/2/5 205/2/5
f 206/2/5 207/2/5 208/2/5
f 207/2/1 148/2/1 208/2/1
f 148/2/1 207/2/1 147/2/1
f 148/2/2 206/2/2 208/2/2
f 206/2/2 148/2/2 134/2/2
f 133/2/4 207/2/4 205/2/4
f 207/2/4 133/2/4 147/2/4
f 133/2/6 206/2/6 134/2/6
f 206/2/6 133/2/6 205/2/6
f 148/2/10 133/2/10 134/2/10
f 133/2/10 148/2/10 147/2/10
f 211/3/5 210/3/5 209/3/5
f 210/3/5 211/3/5 212/3/5
f 211/3/1 213/3/1 212/3/1
f 213/3/1 211/3/1 214/3/1
f 213/3/2 210/3/2 212/3/2
f 210/3/2 213/3/2 215/3/2
f 216/3/4 211/3/4 209/3/4
f 211/3/4 216/3/4 214/3/4
f 216/3/6 210/3/6 215/3/6
f 210/3/6 216/3/6 209/3/6
f 213/3/10 216/3/10 215/3/10
f 216/3/10 213/3/10 214/3/10
f 219/4/5 218/4/5 217/4/5
f 218/4/5 219/4/5 220/4/5
f 219/4/1 221/4/1 220/4/1
f 221/4/1 219/4/1 222/4/1
f 221/4/2 218/4/2 220/4/2
f 218/4/2 221/4/2 223/4/2
f 224/4/4 219/4/4 217/4/4
f 219/4/4 224/4/4 222/4/4
f 224/4/6 218/4/6 223/4/6
f 218/4/6 224/4/6 217/4/6
f 221/4/10 224/4/10 223/4/10
f 224/4/10 221/4/10 222/4/10
f 227/3/5 226/3/5 225/3/5
f 226/3/5 227/3/5 228/3/5
f 227/3/1 229/3/1 228/3/1
f 229/3/1 227/3/1 230/3/1
f 229/3/2 226/3/2 228/3/2
f 226/3/2 229/3/2 100/3/2
f 99/3/4 227/3/4 225/3/4
f 227/3/4 99/3/4 230/3/4
f 99/3/6 226/3/6 100/3/6
f 226/3/6 99/3/6 225/3/6
f 229/3/10 99/3/10 100/3/10
f 99/3/10 229/3/10 230/3/10
f 233/2/5 232/2/5 231/2/5
f 232/2/5 233/2/5 234/2/5
f 233/2/1 235/2/1 234/2/1
f 235/2/1 233/2/1 236/2/1
f 235/2/2 232/2/2 234/2/2
f 232/2/2 235/2/2 237/2/2
f 238/2/4 233/2/4 231/2/4
f 233/2/4 238/2/4 236/2/4
f 238/2/6 232/2/6 237/2/6
f 232/2/6 238/2/6 231/2/6
f 235/2/10 238/2/10 237/2/10
f 238/2/10 235/2/10 236/2/10
f 241/3/5 240/3/5 239/3/5
f 240/3/5 241/3/5 242/3/5
f 241/3/1 114/3/1 242/3/1
f 114/3/1 241/3/1 113/3/1
f 114/3/2 240/3/2 242/3/2
f 240/3/2 114/3/2 243/3/2
f 244/3/4 241/3/4 239/3/4
f 241/3/4 244/3/4 113/3/4
f 244/3/6 240/3/6 243/3/6
f 240/3/6 244/3/6 239/3/6
f 114/3/10 244/3/10 243/3/10
f 244/3/10 114/3/10 113/3/10
f 247/3/5 246/3/5 245/3/5
f 246/3/5 247/3/5 248/3/5
f 247/3/1 249/3/1 248/3/1
f 249/3/1 247/3/1 250/3/1
f 249/3/2 246/3/2 248/3/2
f 246/3/2 249/3/2 251/3/2
f 252/3/4 247/3/4 245/3/4
f 247/3/4 252/3/4 250/3/4
f 252/3/6 246/3/6 251/3/6
f 246/3/6 252/3/6 245/3/6
f 249/3/10 252/3/10 251/3/10
f 252/3/10 249/3/10 250/3/10
f 255/3/5 254/3/5 253/3/5
f 254/3/5 255/3/5 256/3/5
f 255/3/1 257/3/1 256/3/1
f 257/3/1 255/3/1 258/3/1
f 257/3/2 254/3/2 256/3/2
f 254/3/2 257/3/2 259/3/2
f 260/3/4 255/3/4 253/3/4
f 255/3/4 260/3/4 258/3/4
f 260/3/6 254/3/6 259/3/6
f 254/3/6 260/3/6 253/3/6
f 257/3/10 260/3/10 259/3/10
f 260/3/10 257/3/10 258/3/10
f 263/2/5 262/2/5 261/2/5
f 262/2/5 263/2/5 264/2/5
f 263/2/1 265/2/1 264/2/1
f 265/2/1 263/2/1 266/2/1
f 265/2/2 262/2/2 264/2/2
f 262/2/2 265/2/2 267/2/2
f 268/2/4 263/2/4 261/2/4
f 263/2/4 268/2/4 266/2/4
f 268/2/6 262/2/6 267/2/6
f 262/2/6 268/2/6 261/2/6
f 265/2/10 268/2/10 267/2/10
f 268/2/10 265/2/10 266/2/10

